<svg xmlns="http://www.w3.org/2000/svg" width="20" height="20" viewBox="0 0 20 20" fill="none">
    <path opacity="0.5" d="M13.7417 12.844C14.529 11.715 14.9999 10.3283 14.9999 8.82503C14.9999 5.06184 12.0839 2 8.49996 2C4.91599 2 2 5.06184 2 8.82503C2 12.5882 4.91602 15.6501 8.49999 15.6501C9.93169 15.6501 11.2525 15.1555 12.3277 14.3288L16.586 18.8L18 17.3152C18 17.3152 13.7417 12.844 13.7417 12.844ZM8.49999 13.55C6.01854 13.55 4.00001 11.4306 4.00001 8.82503C4.00001 6.2195 6.01854 4.10002 8.49999 4.10002C10.9814 4.10002 13 6.2195 13 8.82503C13 11.4306 10.9814 13.55 8.49999 13.55Z" fill="#2F75AF"/>
</svg>