<svg xmlns="http://www.w3.org/2000/svg" width="20" height="20" viewBox="0 0 20 20" fill="none">
    <path d="M10.0312 2C5.63719 2 2 5.57469 2 9.96875C2 14.3628 5.63719 18 10.0312 18C14.4253 18 18 14.3628 18 9.96875C18 5.57469 14.4253 2 10.0312 2ZM14.25 10.9062H10.9688V14.25C10.9688 14.7669 10.5478 15.1875 10.0312 15.1875C9.51437 15.1875 9.09375 14.7669 9.09375 14.25V10.9062H5.75C5.23312 10.9062 4.8125 10.4856 4.8125 9.96875C4.8125 9.45187 5.23312 9.03125 5.75 9.03125H9.09375V5.75C9.09375 5.23312 9.51437 4.8125 10.0312 4.8125C10.5478 4.8125 10.9688 5.23312 10.9688 5.75V9.03125H14.25C14.7666 9.03125 15.1875 9.45187 15.1875 9.96875C15.1875 10.4856 14.7666 10.9062 14.25 10.9062Z" fill="#AF354E"/>
</svg>